<svg width="15" height="16" viewBox="0 0 15 16" fill="none" xmlns="http://www.w3.org/2000/svg">
<circle cx="8" cy="8" r="6.73774" fill="url(#paint0_linear_2842_1)" stroke="url(#paint1_linear_2842_1)" stroke-width="0.6"/>
<path d="M11.5957 4.80761C11.4559 4.81177 11.3233 4.8702 11.2258 4.97051L5.68709 10.5092L3.91513 8.73725C3.86555 8.68561 3.80616 8.64437 3.74044 8.61597C3.67472 8.58757 3.60399 8.57256 3.5324 8.57183C3.46081 8.5711 3.3898 8.58467 3.32352 8.61173C3.25723 8.63879 3.19702 8.6788 3.14639 8.72943C3.09577 8.78005 3.05575 8.84027 3.02869 8.90655C3.00163 8.97283 2.98807 9.04385 2.9888 9.11544C2.98953 9.18703 3.00453 9.25775 3.03294 9.32347C3.06134 9.38919 3.10257 9.44858 3.15421 9.49816L5.30664 11.6506C5.40756 11.7515 5.5444 11.8081 5.68709 11.8081C5.82978 11.8081 5.96663 11.7515 6.06755 11.6506L11.9867 5.73143C12.0645 5.65584 12.1176 5.55853 12.1391 5.45224C12.1606 5.34596 12.1495 5.23565 12.1072 5.13579C12.065 5.03592 11.9935 4.95116 11.9022 4.8926C11.811 4.83403 11.7041 4.80441 11.5957 4.80761Z" fill="white"/>
<defs>
<linearGradient id="paint0_linear_2842_1" x1="3.41972" y1="6.27062" x2="13.2253" y2="12.3811" gradientUnits="userSpaceOnUse">
<stop stop-color="#5591F1"/>
<stop offset="1" stop-color="#1153FC"/>
</linearGradient>
<linearGradient id="paint1_linear_2842_1" x1="3.41972" y1="6.27062" x2="13.2253" y2="12.3811" gradientUnits="userSpaceOnUse">
<stop stop-color="#5591F1"/>
<stop offset="1" stop-color="#1153FC"/>
</linearGradient>
</defs>
</svg>
